<svg width="24" height="24" viewBox="0 0 24 24" fill="none" xmlns="http://www.w3.org/2000/svg">
<path d="M3.24827 17.7699L2.50048 17.7124L3.24827 17.7699ZM20.7513 17.7699L21.4991 17.7124L20.7513 17.7699ZM20.2129 10.7699L19.4651 10.8274L20.2129 10.7699ZM3.78673 10.7699L4.53452 10.8274L3.78673 10.7699ZM9.0098 11.75C9.42402 11.75 9.7598 11.4142 9.7598 11C9.7598 10.5858 9.42402 10.25 9.0098 10.25V11V11.75ZM8.9998 10.25C8.58559 10.25 8.2498 10.5858 8.2498 11C8.2498 11.4142 8.58559 11.75 8.9998 11.75V11V10.25ZM15.0098 11.75C15.424 11.75 15.7598 11.4142 15.7598 11C15.7598 10.5858 15.424 10.25 15.0098 10.25V11V11.75ZM14.9998 10.25C14.5856 10.25 14.2498 10.5858 14.2498 11C14.2498 11.4142 14.5856 11.75 14.9998 11.75V11V10.25ZM6.7779 8V8.75H17.2217V8V7.25H6.7779V8ZM20.2129 10.7699L19.4651 10.8274L20.0035 17.8274L20.7513 17.7699L21.4991 17.7124L20.9607 10.7124L20.2129 10.7699ZM17.7602 21V20.25H6.23944V21V21.75H17.7602V21ZM3.24827 17.7699L3.99606 17.8274L4.53452 10.8274L3.78673 10.7699L3.03894 10.7124L2.50048 17.7124L3.24827 17.7699ZM6.23944 21V20.25C4.92879 20.25 3.89554 19.1342 3.99606 17.8274L3.24827 17.7699L2.50048 17.7124C2.33294 19.8904 4.05502 21.75 6.23944 21.75V21ZM20.7513 17.7699L20.0035 17.8274C20.1041 19.1342 19.0708 20.25 17.7602 20.25V21V21.75C19.9446 21.75 21.6667 19.8904 21.4991 17.7124L20.7513 17.7699ZM17.2217 8V8.75C18.3974 8.75 19.3749 9.65519 19.4651 10.8274L20.2129 10.7699L20.9607 10.7124C20.8104 8.75865 19.1812 7.25 17.2217 7.25V8ZM6.7779 8V7.25C4.81839 7.25 3.18923 8.75865 3.03894 10.7124L3.78673 10.7699L4.53452 10.8274C4.6247 9.65519 5.60219 8.75 6.7779 8.75V8ZM14.9998 6H14.2498V8H14.9998H15.7498V6H14.9998ZM8.9998 8H9.7498V6H8.9998H8.2498V8H8.9998ZM11.9998 3V3.75C13.2424 3.75 14.2498 4.75736 14.2498 6H14.9998H15.7498C15.7498 3.92893 14.0709 2.25 11.9998 2.25V3ZM11.9998 3V2.25C9.92874 2.25 8.2498 3.92893 8.2498 6H8.9998H9.7498C9.7498 4.75736 10.7572 3.75 11.9998 3.75V3ZM9.0098 11V10.25H8.9998V11V11.75H9.0098V11ZM15.0098 11V10.25H14.9998V11V11.75H15.0098V11Z" fill="#1D4510"/>
</svg>
